Coordinates
version=1
nRows=60
nColumns=12
inDegrees=yes

Units are S.I. units (second, meters, Newtons, ...)
Angles are in degrees

endheader
time	SC_y	SC_z	SC_x	AC_y	AC_z	AC_x	GH_y	GH_z	GH_yy	EL_x	PS_y
       0.0              -21.32          23.85          25.19          49.12         -12.68        0.09228          53.85         -2.086          -79.6          81.24          158.0
   0.03348              -21.32          23.85          25.18          49.13         -12.68        0.09313          53.87         -2.074         -79.59          81.25          158.0
   0.06695              -21.32          23.85          25.18          49.13         -12.68        0.09403          53.88         -2.062         -79.59          81.26          158.0
    0.1004              -21.33          23.85          25.18          49.13         -12.69        0.09499          53.89         -2.048         -79.58          81.27          158.0
    0.1339              -21.33          23.85          25.17          49.13         -12.69        0.09602          53.91         -2.034         -79.57          81.28          158.0
    0.1674              -21.34          23.85          25.17          49.14         -12.69        0.09711          53.92         -2.018         -79.57          81.29          158.0
    0.2009              -21.34          23.85          25.16          49.14         -12.69        0.09827          53.94         -2.002         -79.56           81.3          158.0
    0.2343              -21.35          23.85          25.16          49.14         -12.69        0.09951          53.96         -1.984         -79.55          81.31          158.0
    0.2678              -21.36          23.85          25.15          49.14         -12.69         0.1008          53.98         -1.966         -79.54          81.32          158.0
    0.3013              -21.36          23.85          25.15          49.15         -12.69         0.1023           54.0         -1.946         -79.54          81.34          158.0
    0.3348              -21.37          23.85          25.14          49.15         -12.69         0.1038          54.02         -1.924         -79.53          81.35          158.0
    0.3682              -21.38          23.85          25.13          49.15          -12.7         0.1055          54.04         -1.901         -79.52          81.36          158.0
    0.4017              -21.39          23.85          25.13          49.16          -12.7         0.1072          54.07         -1.876         -79.51          81.38          158.0
    0.4352               -21.4          23.85          25.12          49.16          -12.7         0.1092           54.1         -1.848         -79.49           81.4          157.9
    0.4687              -21.41          23.85          25.11          49.17          -12.7         0.1112          54.13         -1.819         -79.48          81.42          157.9
    0.5021              -21.42          23.85           25.1          49.17          -12.7         0.1135          54.16         -1.787         -79.47          81.44          157.9
    0.5356              -21.43          23.85          25.09          49.18         -12.71         0.1159          54.19         -1.753         -79.45          81.46          157.9
    0.5691              -21.44          23.85          25.08          49.18         -12.71         0.1186          54.23         -1.715         -79.44          81.49          157.9
    0.6026              -21.46          23.85          25.07          49.19         -12.71         0.1215          54.28         -1.674         -79.42          81.51          157.9
     0.636              -21.47          23.85          25.06           49.2         -12.71         0.1247          54.32         -1.629          -79.4          81.54          157.8
    0.6695              -21.49          23.85          25.04          49.21         -12.72         0.1282          54.37          -1.58         -79.38          81.57          157.8
     0.703              -21.51          23.85          25.03          49.21         -12.72         0.1321          54.43         -1.525         -79.36          81.61          157.8
    0.7365              -21.53          23.85          25.01          49.22         -12.73         0.1364          54.49         -1.465         -79.33          81.65          157.8
    0.7699              -21.55          23.85          24.99          49.24         -12.73         0.1411          54.56         -1.398          -79.3          81.69          157.7
    0.8034              -21.57          23.85          24.97          49.25         -12.74         0.1463          54.63         -1.324         -79.27          81.74          157.7
    0.8369               -21.6          23.85          24.94          49.26         -12.74         0.1522          54.72         -1.242         -79.23          81.79          157.7
    0.8704              -21.63          23.86          24.92          49.28         -12.75         0.1588          54.81         -1.149         -79.19          81.85          157.6
    0.9038              -21.67          23.86          24.89          49.29         -12.75         0.1661          54.92         -1.045         -79.15          81.92          157.6
    0.9373              -21.71          23.86          24.85          49.31         -12.76         0.1745          55.04        -0.9275          -79.1           82.0          157.5
    0.9708              -21.75          23.86          24.81          49.33         -12.77          0.184          55.17         -0.794         -79.04          82.09          157.5
     1.004               -21.8          23.86          24.77          49.36         -12.78         0.1948          55.33        -0.6416         -78.98          82.18          157.4
     1.038              -21.86          23.86          24.72          49.39         -12.79         0.2072          55.51        -0.4666          -78.9           82.3          157.3
     1.071              -21.93          23.86          24.66          49.42         -12.81         0.2215          55.71        -0.2647         -78.82          82.43          157.3
     1.105              -22.01          23.86          24.59          49.46         -12.82         0.2382          55.95       -0.03003         -78.72          82.58          157.2
     1.138               -22.1          23.86          24.51           49.5         -12.84         0.2576          56.23         0.2445          -78.6          82.76          157.0
     1.172              -22.21          23.87          24.42          49.55         -12.87         0.2806          56.56         0.5682         -78.46          82.97          156.9
     1.205              -22.34          23.87           24.3          49.61         -12.89         0.3079          56.96         0.9529         -78.29          83.22          156.7
     1.239               -22.5          23.87          24.17          49.69         -12.92         0.3406          57.43          1.414          -78.1          83.52          156.5
     1.272              -22.69          23.88          24.01          49.78         -12.96         0.3801           58.0          1.972         -77.86          83.89          156.3
     1.306              -22.92          23.88          23.81          49.89         -13.01         0.4285          58.69          2.653         -77.57          84.33          156.0
     1.339              -23.21          23.88          23.56          50.02         -13.07         0.4881          59.55          3.494         -77.21          84.88          155.6
     1.372              -23.56          23.89          23.26          50.19         -13.14         0.5625          60.62          4.543         -76.76          85.56          155.2
     1.406              -24.01           23.9          22.87          50.41         -13.23         0.6563          61.97          5.864         -76.19          86.42          154.6
     1.439              -24.58          23.91          22.39          50.68         -13.35         0.7754          63.68          7.543         -75.47          87.51          153.9
     1.473               -25.3          23.92          21.76          51.02          -13.5         0.9279          65.88          9.693         -74.55          88.91          153.0
     1.506              -26.24          23.94          20.96          51.47         -13.69          1.124           68.7          12.45         -73.37          90.71          151.8
      1.54              -27.43          23.96          19.93          52.04         -13.93          1.374          72.29          15.98         -71.86           93.0          150.3
     1.573              -28.93          23.99          18.64          52.75         -14.24          1.688          76.82          20.41         -69.96          95.89          148.4
     1.607              -30.76          24.03          17.07          53.62         -14.61          2.071          82.33          25.81         -67.65           99.4          146.1
      1.64              -32.88          24.07          15.25          54.63         -15.05          2.515          88.72          32.06         -64.97          103.5          143.4
     1.674              -35.17          24.11          13.28          55.72         -15.51          2.995          95.63          38.84         -62.06          107.9          140.5
     1.707              -37.47          24.15           11.3          56.82         -15.98          3.476          102.6          45.62         -59.16          112.3          137.6
     1.741              -39.59          24.19          9.482          57.83         -16.42           3.92          108.9          51.88         -56.48          116.4          134.9
     1.774              -41.42          24.22           7.91           58.7         -16.79          4.303          114.5          57.27         -54.17          119.9          132.6
     1.808              -42.92          24.25           6.62          59.41          -17.1          4.617          119.0           61.7         -52.27          122.8          130.7
     1.841              -44.11          24.27          5.595          59.98         -17.34          4.867          122.6          65.23         -50.76          125.1          129.1
     1.875              -45.04          24.29          4.792          60.42         -17.53          5.063          125.4          67.99         -49.58          126.9          128.0
     1.908              -45.77          24.31          4.166          60.77         -17.68          5.216          127.6          70.14         -48.66          128.3          127.0
     1.942              -46.34          24.32          3.677          61.04          -17.8          5.335          129.3          71.82         -47.94          129.4          126.3
     1.975              -46.79          24.32          3.293          61.25         -17.89          5.428          130.6          73.14         -47.37          130.2          125.7
